<svg width="134.19" height="21.811" viewBox="0 0 134.19 21.811" xmlns="http://www.w3.org/2000/svg"><g id="svgGroup" stroke-linecap="round" fill-rule="evenodd" font-size="9pt" stroke="#000" stroke-width="0.5mm" fill="#000" style="stroke:#000;stroke-width:0.5mm;fill:#000"><path d="M 116.82 0.3 L 116.82 21.51 L 114.81 21.51 L 102.96 3.3 L 102.72 3.3 L 102.72 21.51 L 100.95 21.51 L 100.95 0.3 L 102.99 0.3 L 114.81 18.48 L 115.05 18.48 L 115.05 0.3 L 116.82 0.3 Z M 122.1 21.51 L 122.1 0.3 L 134.04 0.3 L 134.04 1.86 L 123.9 1.86 L 123.9 10.11 L 133.35 10.11 L 133.35 11.67 L 123.9 11.67 L 123.9 19.95 L 134.19 19.95 L 134.19 21.51 L 122.1 21.51 Z M 50.67 6.45 L 48.78 6.45 A 7.323 7.323 0 0 0 48.357 4.878 Q 47.841 3.594 46.845 2.82 A 5.423 5.423 0 0 0 44.856 1.867 Q 44.084 1.667 43.176 1.629 A 10.308 10.308 0 0 0 42.75 1.62 A 7.92 7.92 0 0 0 40.531 1.915 A 5.862 5.862 0 0 0 37.545 3.9 Q 35.704 6.175 35.7 10.839 A 23.252 23.252 0 0 0 35.7 10.86 Q 35.7 15.57 37.545 17.865 A 6.01 6.01 0 0 0 41.616 20.089 A 8.772 8.772 0 0 0 42.75 20.16 A 8.813 8.813 0 0 0 44.453 20.005 Q 45.461 19.807 46.256 19.354 A 4.977 4.977 0 0 0 46.845 18.96 A 4.894 4.894 0 0 0 48.337 16.992 Q 48.643 16.283 48.8 15.416 A 8.95 8.95 0 0 0 48.81 15.36 L 50.7 15.36 A 9.623 9.623 0 0 1 50.107 17.512 A 6.652 6.652 0 0 1 48.18 20.16 Q 46.357 21.657 43.373 21.796 A 13.39 13.39 0 0 1 42.75 21.81 A 10.894 10.894 0 0 1 40.106 21.509 A 7.038 7.038 0 0 1 36.105 18.945 A 9.612 9.612 0 0 1 34.564 15.881 Q 34.149 14.534 33.993 12.909 A 21.498 21.498 0 0 1 33.9 10.86 A 19.645 19.645 0 0 1 34.126 7.777 Q 34.606 4.762 36.105 2.835 A 7.079 7.079 0 0 1 40.252 0.264 A 11.151 11.151 0 0 1 42.75 0 Q 44.88 0 46.545 0.72 Q 48.21 1.44 49.275 2.88 A 7.101 7.101 0 0 1 50.281 4.834 A 9.575 9.575 0 0 1 50.67 6.45 Z M 30.39 21.51 L 23.73 2.61 L 23.61 2.61 L 16.95 21.51 L 15.12 21.51 L 22.71 0.3 L 24.75 0.3 L 32.31 21.51 L 30.39 21.51 Z M 0 1.86 L 0 0.3 L 15.66 0.3 L 15.66 1.86 L 8.73 1.86 L 8.73 21.51 L 6.93 21.51 L 6.93 1.86 L 0 1.86 Z M 73.08 21.51 L 73.08 0.3 L 74.88 0.3 L 74.88 19.95 L 84.99 19.95 L 84.99 21.51 L 73.08 21.51 Z M 56.82 0.3 L 56.82 21.51 L 55.02 21.51 L 55.02 0.3 L 56.82 0.3 Z M 92.73 0.3 L 92.73 21.51 L 90.93 21.51 L 90.93 0.3 L 92.73 0.3 Z M 69.15 0.3 L 56.37 15.66 L 56.37 13.17 L 66.96 0.3 L 69.15 0.3 Z M 59.82 9.96 L 61.11 8.7 L 69.72 21.51 L 67.56 21.51 L 59.82 9.96 Z M 28.56 13.59 L 28.56 15.15 L 18.87 15.15 L 18.87 13.59 L 28.56 13.59 Z M 95.97 1.86 L 87.66 1.86 L 87.66 0.3 L 95.97 0.3 L 95.97 1.86 Z M 95.97 21.51 L 87.66 21.51 L 87.66 19.95 L 95.97 19.95 L 95.97 21.51 Z" vector-effect="non-scaling-stroke"/></g></svg>